<svg width="206" height="206" viewBox="0 0 206 206" fill="none" xmlns="http://www.w3.org/2000/svg">
<rect x="183.239" y="100.424" width="6.9077" height="62.563" rx="3.45385" transform="rotate(45 183.239 100.424)" fill="white"/>
<path d="M29 65.0723C29 62.3109 31.2386 60.0723 34 60.0723H35.9077V86.7031C35.9077 87.2554 35.46 87.7031 34.9077 87.7031H30C29.4477 87.7031 29 87.2554 29 86.7031V65.0723Z" fill="white"/>
<rect x="25" y="88" width="5" height="15" rx="1" transform="rotate(-90 25 88)" fill="white"/>
<rect x="67" y="149" width="5" height="15" rx="1" transform="rotate(-90 67 149)" fill="white"/>
<path d="M29 66.98V65.0723C29 62.3109 31.2386 60.0723 34 60.0723L70.4462 60.0723V66.98L29 66.98Z" fill="white"/>
<path d="M77.3539 107.735H70.4462L70.4462 60.0723H72.3539C75.1153 60.0723 77.3539 62.3109 77.3539 65.0723L77.3539 107.735Z" fill="white"/>
<rect x="147" y="147.891" width="7" height="87" rx="3.5" transform="rotate(-180 147 147.891)" fill="white"/>
<path d="M17 70H21L21 56H17L17 70Z" fill="white"/>
<path d="M184 70H188V56H184V70Z" fill="white"/>
<rect x="55.94" y="102.432" width="7.10939" height="49.9979" rx="3.5547" transform="rotate(-18.8358 55.94 102.432)" fill="white"/>
<path fill-rule="evenodd" clip-rule="evenodd" d="M87 64C87 64.5523 87.4477 65 88 65H91V105.188C91 105.418 91.0223 105.642 91.0649 105.858C91.0223 106.077 91 106.302 91 106.533V144.11H88C87.4477 144.11 87 144.558 87 145.11V148C87 148.552 87.4477 149 88 149H94.5H101C101.552 149 102 148.552 102 148V145.11C102 144.558 101.552 144.11 101 144.11H98V106.533C98 106.218 97.9585 105.913 97.8806 105.623C97.8985 105.481 97.9077 105.336 97.9077 105.188V65H101C101.552 65 102 64.5523 102 64V61C102 60.4477 101.552 60 101 60H94.4538H88C87.4477 60 87 60.4477 87 61V64Z" fill="#9B78FF"/>
<path d="M140.939 65.6583C139.665 64.3253 139.723 62.2225 141.068 60.9616V60.9616C142.413 59.7006 144.535 59.759 145.809 61.092L185.712 102.863C186.986 104.196 186.928 106.299 185.583 107.56V107.56C184.238 108.821 182.116 108.762 180.842 107.429L140.939 65.6583Z" fill="white"/>
<path d="M60.5 108C58.567 108 57 106.433 57 104.5V104.5C57 102.567 58.567 101 60.5 101L182.5 101C184.433 101 186 102.567 186 104.5V104.5C186 106.433 184.433 108 182.5 108L60.5 108Z" fill="white"/>
<path fill-rule="evenodd" clip-rule="evenodd" d="M120 64C120 64.5523 120.448 65 121 65H124V105.188C124 105.418 124.022 105.642 124.065 105.858C124.022 106.077 124 106.302 124 106.533V144.11H121C120.448 144.11 120 144.558 120 145.11V148C120 148.552 120.448 149 121 149H127.5H134C134.552 149 135 148.552 135 148V145.11C135 144.558 134.552 144.11 134 144.11H131V106.533C131 106.218 130.958 105.913 130.881 105.623C130.898 105.481 130.908 105.336 130.908 105.188V65H134C134.552 65 135 64.5523 135 64V61C135 60.4477 134.552 60 134 60H127.454H121C120.448 60 120 60.4477 120 61V64Z" fill="#9B78FF"/>
</svg>
